<?xml version="1.0" encoding="utf-8"?>
<!-- Generator: Adobe Illustrator 24.0.0, SVG Export Plug-In . SVG Version: 6.00 Build 0)  -->
<svg version="1.1" id="Layer_1" xmlns="http://www.w3.org/2000/svg" xmlns:xlink="http://www.w3.org/1999/xlink" x="0px" y="0px" viewBox="505 359.20001220703125 847.0999755859375 337" style="enable-background:new 0 0 1920 1080;" xml:space="preserve"><style type="text/css">	.st0{fill:#228B22;}	.st1{fill:#FFFFFF;}</style><g>	<rect x="505" y="359.2" class="st0" width="847.1" height="337"></rect>	<g>		<g>			<path class="st1" d="M613.4,475c-8.4,4.7-18.1,7.1-29,7.1c-12.6,0-22.6-3.8-30.1-11.5c-7.5-7.6-11.3-17.9-11.3-30.8				c0-13.1,4.2-23.8,12.5-32.1c8.3-8.3,19.1-12.5,32.2-12.5c9,0,16.8,1.4,23.2,4.2v13.4c-6.6-4.1-14.6-6.1-24-6.1				c-8.9,0-16.1,3-21.8,9c-5.6,6-8.5,13.8-8.5,23.5c0,10,2.6,17.8,7.8,23.4c5.2,5.6,12.2,8.4,21.1,8.4c5.9,0,10.8-1.1,14.8-3.3				v-21.1h-17.9v-11.1h30.9V475z"></path>			<path class="st1" d="M708.9,480.7h-15.3L680,457.8c-2.7-4.5-5.1-7.5-7.3-9.2s-4.7-2.4-7.5-2.4h-7.1v34.5h-13v-84.1h26.8				c8.7,0,15.5,2,20.2,5.9c4.8,3.9,7.1,9.5,7.1,16.7c0,5.6-1.6,10.5-4.9,14.5c-3.3,4-7.9,6.8-13.8,8.4v0.2c3.8,1.3,8,5.7,12.6,13.2				L708.9,480.7z M658.1,407.4v28h11.6c4.8,0,8.7-1.4,11.5-4.2c2.9-2.8,4.3-6.3,4.3-10.6c0-8.8-5.2-13.2-15.6-13.2H658.1z"></path>			<path class="st1" d="M779.1,480.7h-46.6v-84.1h44.7v11.2h-31.6v24.8h29.4v11.1h-29.4v25.8h33.5V480.7z"></path>			<path class="st1" d="M854.3,480.7h-46.6v-84.1h44.7v11.2h-31.6v24.8h29.4v11.1h-29.4v25.8h33.5V480.7z"></path>			<path class="st1" d="M953.5,480.7h-14.5l-40.2-62c-1.5-2.3-2.6-4.3-3.3-5.9h-0.3c0.3,2.2,0.5,6.3,0.5,12.3v55.6H883v-84.1h15.4				l39,60.8c1.8,2.9,3.1,4.9,3.7,6h0.3c-0.4-2.6-0.6-6.6-0.6-12.1v-54.8h12.7V480.7z"></path>			<path class="st1" d="M616.5,595.7h-14.3l-7.9-21.9h-33.7l-7.5,21.9h-14.3l31.7-84.1H585L616.5,595.7z M590.7,563.1l-11.7-33.2				c-0.4-1.2-0.9-3.3-1.3-6.4h-0.4c-0.3,2.5-0.8,4.6-1.4,6.2l-11.7,33.3H590.7z"></path>			<path class="st1" d="M712.1,595.7h-14.5l-40.2-62c-1.5-2.3-2.6-4.3-3.3-5.9h-0.3c0.3,2.2,0.5,6.3,0.5,12.3v55.6h-12.6v-84.1H657				l39,60.8c1.8,2.9,3.1,4.9,3.7,6h0.3c-0.4-2.6-0.6-6.6-0.6-12.1v-54.8h12.7V595.7z"></path>			<path class="st1" d="M804.8,592.4c-6.2,3.1-14.1,4.7-23.5,4.7c-12.2,0-21.9-3.8-29.2-11.5s-11-17.8-11-30.3				c0-13.1,4.1-23.9,12.2-32.4c8.1-8.5,18.6-12.7,31.4-12.7c8.1,0,14.8,1.1,20.1,3.4v13.2c-5.9-3.3-12.5-5-19.7-5				c-9.2,0-16.5,3-22,9c-5.5,6-8.3,13.9-8.3,23.6c0,9.3,2.6,16.8,7.8,22.6c5.2,5.8,12.1,8.6,20.9,8.6c8.1,0,15.2-1.9,21.4-5.6V592.4				z"></path>			<path class="st1" d="M900.8,595.7h-13v-36.9h-40.4v36.9h-13v-84.1h13v35.7h40.4v-35.7h13V595.7z"></path>			<path class="st1" d="M1122.5,595.7h-15.3l-13.7-22.9c-2.7-4.5-5.1-7.5-7.3-9.2c-2.2-1.6-4.7-2.4-7.5-2.4h-7.1v34.5h-13v-84.1				h26.8c8.7,0,15.5,2,20.2,5.9c4.8,3.9,7.1,9.5,7.1,16.7c0,5.6-1.6,10.5-4.9,14.5c-3.3,4-7.9,6.8-13.8,8.4v0.2				c3.8,1.3,8,5.7,12.6,13.2L1122.5,595.7z M1071.7,522.4v28h11.6c4.8,0,8.7-1.4,11.5-4.2c2.9-2.8,4.3-6.3,4.3-10.6				c0-8.8-5.2-13.2-15.6-13.2H1071.7z"></path>			<path class="st1" d="M1192.7,595.7h-46.6v-84.1h44.7v11.2h-31.6v24.8h29.4v11.1h-29.4v25.8h33.5V595.7z"></path>			<path class="st1" d="M1221.4,595.7v-84.1h25.5c29.7,0,44.5,13.7,44.5,41c0,13.1-4.2,23.6-12.7,31.4c-8.5,7.8-19.3,11.7-32.5,11.7				H1221.4z M1234.4,522.8v61.7h11.5c9.9,0,17.7-2.8,23.4-8.3c5.7-5.6,8.5-13.3,8.5-23.3c0-9.8-2.7-17.3-8.1-22.4				c-5.4-5.1-13.2-7.7-23.5-7.7H1234.4z"></path>		</g>		<g>			<g>				<path class="st1" d="M1025.8,547.7c0,1.6,0,3.1,0,4.7c0,0.2-0.1,0.4-0.1,0.6c-0.3,3.3-0.8,6.5-1.8,9.7					c-3.1,10.1-8.9,18.3-17.4,24.5c-5.5,4-11.6,6.6-18.4,7.8c-2,0.4-4,0.6-6,0.8c-1.7,0-3.5,0-5.2,0c-0.7-0.1-1.3-0.1-2-0.2					c-9.7-1.1-18.4-4.6-25.6-11.2c-13-11.8-18-26.5-14.9-43.7c1.8-10,6.8-18.4,14.3-25.2c7.8-7.1,17.1-11.1,27.7-11.8					c8.7-0.6,17,1.1,24.7,5.2c8.4,4.4,14.8,10.9,19.3,19.2c2.5,4.7,4.2,9.7,4.9,15.1C1025.5,544.6,1025.6,546.2,1025.8,547.7z					 M1007.7,518.1c-15.8-14-38.3-13.6-52.7-2.7c1.9,0,3.6,0.4,5.3,1.7c0.5,0,1.4,0,2.3,0c-0.5-1.5-1.9-0.5-2.5-1					c0-0.4,0.2-0.7,0.1-0.9c-0.1-0.2-0.5-0.2-0.8-0.3c-0.4,0-0.8,0-1.3,0c0.6-0.7,1.2-1.1,1.8-1.5c0.9-0.7,2.7-0.4,3.4,0.5					c0.7,1,2.1,1.1,3,0.2c0.5-0.5,0.8-0.5,1.2-0.1c-0.8,1.3-1.9,1.8-3.4,1.5c0.1,0.6,0.2,1,0.2,1.5c0.6,0,1.1,0,1.6,0					c0.3,0,0.8,0,0.9-0.2c0.3-0.6,0.8-0.6,1.3-0.6c0.8,0,1.1-0.3,0.9-1.1c-0.3-0.1-0.6-0.1-0.8-0.2c0-0.7,0.3-1.1,1-1.1					c0.9,0,1.8,0,2.8,0c-0.4,0.9-1.8,1.2-1.2,2.3c0.2,0.4,1,0.5,1.6,0.7c0-0.7-0.1-1.1-0.1-1.6c0-0.2,0.1-0.6,0.3-0.7					c0.6-0.3,1.3-0.5,2-0.8c1.7-0.6,3.1,0.3,4.6,0.9c1,0.4,1.6,0.8,1.4,2c0,0,0,0.1,0.1,0.2c0.4,0.1,0.7,0.2,1.1,0.4					c-0.2,0.9-0.6,1.3-1.5,1.2c-0.6-0.1-1,0.2-1.1,0.8c0,0.2-0.2,0.4-0.3,0.6c-1.3-0.3-2.5-0.6-4-1c1.2-0.6,2.1-1.2,3.2-1.8					c-0.6-0.4-1-0.9-1.5-0.9c-0.9,0-1.9,0.1-2.7,0.5c-0.8,0.3-1.4,0.9-2.2,1.4c0.1,0.1,0.2,0.4,0.4,0.6c-0.6,0.4-1.3,0.7-2,1.1					c-0.2-0.6-0.2-0.9-0.4-1.6c-1.6,0.9-3.1,1.6-4.6,2.4c-1.1,0.6-1.1,1.8,0,2.4c0.8,0.4,1.7,0.6,2.7,0.8c0,0.3,0,0.7,0,1					c0,0.4,0,0.8,0,1.1c0.1,0.1,0.2,0.1,0.3,0.2c0.3-0.3,0.7-0.6,1-0.9c0.4-0.4,0.6-1.2,1-1.3c1.8-0.2,2.1-1.3,1.9-2.8					c0-0.1-0.1-0.3,0-0.4c0.5-0.4,1-1.2,1.5-1.2c0.9,0,1.8,0.4,2.8,0.6c-0.1,0.7-0.1,1.2-0.2,2.1c1.1-0.4,2-0.8,3.1-1.2					c0,0.5,0,0.9,0,1.3c-0.1,0.8,0.2,1.4,1,1.7c0.7,0.3,0.7,0.8,0.7,1.4c0,0.7-0.5,0.6-0.9,0.8c-0.2,0.1-0.4,0.3-0.6,0.4					c0.2,0.2,0.4,0.4,0.6,0.6c0.1,0.1,0.3,0.2,0.5,0.2c0.7,0.2,1,0.6,0.6,1.5c-0.6-0.2-1.3-0.4-1.9-0.6c-1.1-0.3-1.1-0.5-0.4-1.4					c0.1-0.2,0.1-0.5,0.1-0.8c-0.2,0.1-0.5,0.1-0.7,0.2c-0.6,0.5-1.7,0.5-2.3,0c-0.3-0.3-0.9-0.3-1.4-0.3c-0.1,0-0.4,0.4-0.3,0.6					c0,0.2,0.2,0.4,0.4,0.5c0.2,0.1,0.5,0.2,0.9,0.3c-0.3,0.3-0.5,0.5-0.7,0.8c-0.6-0.6-1.1-0.6-1.6,0c-0.7,0.7-1.3,1.6-2.2,2					c-1.6,0.8-2.8,2.2-4,3.4c-0.1,0.1-0.3,0.4-0.3,0.5c0,0.7-0.4,1.1-1,1.5c-0.5,0.3-1,0.6-1.5,1c-1,0.7-1.8,1.6-1.5,3					c0.1,0.3,0,0.6,0,1.1c-0.6-0.3-1.2-0.4-1.5-0.8c-0.3-0.4-0.2-1-0.3-1.5c-1.6,0-3.1-0.2-4.6,0.1c-1.1,0.2-2.2,0.8-2.9,1.6					c-0.7,0.7-0.9,1.8-1.3,2.7c-0.4,0.9,0,1.8,0.6,2.2c0.7,0.4,1.6,0.6,2.5,0c0.9-0.6,1.7-1.2,2.6-1.7c0.8,1.2-0.4,1.9-0.5,2.9					c0.8,0.1,1.5,0.3,2.3,0.4c0.1,0.6,0.1,1.2,0.1,1.8c0,0.6,0.1,1.3,0.1,1.9c0.4,0.1,0.9,0.1,1.2,0.2c1.5,0.6,2.7,0.2,3.5-1.2					c0.3-0.6,0.8-1,1.6-0.7c0.6,0.2,1.6,0.2,1.8,0.6c0.6,1.1,1.5,1.1,2.5,0.9c0.4-0.1,0.7-0.3,1.3-0.5c0.9,0.4,1,0.4,1.9,1.9					c0.4,0.7,0.9,1.2,1.8,1c1.3-0.3,2,0.5,2.4,1.6c0.2,0.5,0.2,1,0.2,1.5c0,0.7,0.3,0.9,0.9,1.1c1.7,0.8,3.4,0.9,5.2,0.9					c0.3,0,0.7,0.1,0.8,0.3c0.5,1.1,1.3,1.9,2.8,2c-0.5,0.9-0.8,1.7-1.2,2.3c-0.7,0.9-1.3,1.8-1.3,3.1c0,0.7-0.3,1.4-0.2,2.1					c0.1,1.2-0.5,1.9-1.4,2.3c-0.6,0.3-1.4,0.3-2.1,0.3c-0.5,0-0.8,0.2-1.1,0.6c-0.6,0.8-0.3,1.6-0.1,2.4c0.2,0.7,0.1,1.3-0.4,1.9					c-0.8,0.9-1.6,1.8-2.1,2.8c-0.8,1.7-2.4,2.1-3.9,2.6c-0.4,0.1-0.7,0.3-1,0.5c0.3,0.2,0.6,0.4,0.9,0.6c0,0,0.1,0.1,0.3,0.3					c-0.4,0.5-0.8,1.1-1.3,1.8c0.6,0.3,1.2,0.5,1.9,0.8c0,0.1,0,0.2,0,0.3c-0.7,1.5-0.3,2.7,1.1,3.5c0.1,0.1-0.1,0.9-0.1,0.9					c-1-0.1-2,0.3-2.9-0.4c-1.4-1.1-2.5-2.4-3.4-4c-0.5-0.9-0.7-1.7-0.5-2.6c0.3-1.3,0-2.3-0.9-3.3c-0.2-0.3-0.3-0.8-0.3-1.2					c0.1-0.9,0.3-1.8,0.4-2.6c-0.8-0.4-0.9-0.4-0.9-1.2c0-1.5-0.1-3.1,0-4.6c0.1-1.4-0.4-2.2-1.5-2.9c-1.1-0.7-2.8-0.9-2.9-2.8					c0-0.1-0.1-0.2-0.2-0.3c-0.5-0.7-1-1.4-1.6-2c-0.8-0.9-1.3-1.7-0.8-3c0.1-0.3,0.1-0.6,0.1-0.9c-0.2-1.1,0.3-1.8,1.2-2.2					c0.1-0.1,0.2-0.1,0.3-0.2c0.6-0.3,0.8-0.7,0.6-1.4c-0.3-1.8-0.3-1.8-2.1-1.9c-0.6-0.1-1.4-0.2-1.8-0.6c-1.3-1.7-2.8-3-5-3.1					c0,0,0,0-0.1-0.1c0-0.3,0-0.6,0-1.2c-0.7,0.2-1.3,0.6-1.8,0.5c-1.6-0.4-3.5-0.3-4.4-2.3c-0.2-0.5-0.5-0.9-0.1-1.5					c0.1-0.2,0-0.7-0.2-1c-1.1-1.6-2.3-3.1-2.3-5.1c0,0-0.1-0.1-0.1-0.2c-0.2,0-0.5,0-0.7,0c-0.1,1.6,0.5,3,1.4,4.2					c0.3,0.4,0.3,1,0.5,1.5c-0.1,0.1-0.2,0.2-0.3,0.3c-0.5-0.2-1.1-0.3-1.4-0.7c-1-1.4-1.9-2.8-1.5-4.6c0-0.2,0.1-0.4,0-0.6					c-0.1-0.3-0.3-0.7-0.5-0.8c-1.2-0.3-1.4-1.1-1.3-2.2c0-0.1,0-0.3-0.1-0.6c-8.3,19.2-0.9,44.1,20.9,54.5					c20.7,9.9,41.8,0.6,50.8-11.5c-0.4,0-0.7,0-1.2-0.1c0-0.7,0-1.5,0-2.2c0-0.3-0.1-0.8-0.3-1c-1.2-1.2-1.5-2.6-1.3-4.2					c0.1-0.7-0.1-1.2-0.7-1.7c-0.8-0.7-0.9-1.6-0.4-2.5c0.3-0.6,0.6-1.1,0.9-1.7c0.3-0.5,0.3-0.9,0-1.5c-0.8-1.3-1.5-2.6-2.3-4					c-0.2-0.3-0.2-0.8-0.2-1.2c0-1,0.2-1.9,0.2-2.9c-0.3-0.1-0.6-0.1-0.8-0.1c-1-0.1-1.9-0.2-2.7-0.9c-0.4-0.4-1.5-0.1-2.2,0					c-0.5,0.1-1,0.4-1.5,0.5c-0.9,0.2-1.7,0.2-2.6,0.3c-0.8,0.1-1.5,0.1-2.2-0.7c-0.9-1.2-1.9-2.2-2.8-3.3c-0.4-0.5-0.8-3.6-0.5-4.1					c0,0,0.1-0.1,0.1-0.1c0.3-0.5,0.6-0.9,0.9-1.5c-0.6-0.1-0.9-0.2-1.1-0.2c-0.7-1-0.3-1.6,0.5-2.1c1-0.6,1.9-1.4,2.9-2					c0.6-0.4,0.9-0.9,0.8-1.6c0-0.5-0.1-1.2,0.2-1.4c0.9-0.6,1.7-1.4,2.9-1.2c1.1,0.1,2.2,0.2,3.2-0.6c0.2-0.1,0.4-0.2,0.6-0.2					c1.5-0.1,2.9-0.2,4.5-0.3c0,0.8,0,1.6,0,2.4c0.9,0.2,1.8,0.4,2.7,0.7c0.8,0.2,1.6,0.6,2.5,0.9c0-0.6,0.1-1,0.1-1.3					c1.6-0.4,2.1-0.4,3.2,0.5c1.4,1.2,3,0.5,4.7,0.7c-0.3-1-0.6-1.7-0.8-2.5c-0.2-0.9-0.6-1.2-1.6-1.1c-1.4,0.1-2.1-0.6-2.2-2.1					c0-0.3-0.1-0.6-0.1-0.9c-1.7,0.3-1.2,1.8-1.9,2.9c-0.5-0.7-1.4-1.3-1.4-2c0-1.3-0.8-1.9-1.5-2.6c-0.8-0.8-1.6-0.7-2.4-0.6					c-0.1,2.1,2,2.1,2.8,3c-0.1,0.4-0.3,0.7-0.2,1c0.1,0.8-0.4,1-1,1.1c-0.6,0.1-1.2-0.1-1.4-0.8c0.5-0.3,1.4,0.3,1.6-0.6					c-1.1-1.2-2.9-1.4-3.6-3.1c-0.7,0.7-1.3,1.4-2.4,0.9c-0.1,0-0.3,0.1-0.4,0.2c-0.6,0.8-1.4,1.5-1.8,2.4c-0.4,1.2-1.2,1.2-2.1,1.2					c-0.5,0-1,0.1-1.4,0c-0.8-0.1-1.5-0.3-1.6-1.4c0-0.4-0.2-0.8-0.2-1.2c0-0.7,0.1-1.5,1.1-1.5c1.1,0,2.2,0,3.4,0					c0.1-0.3,0.1-0.6,0.2-1c-0.3-0.1-0.6-0.2-0.9-0.3c0.1-0.5,0.1-0.9,0.2-1.3c0.1-0.3,0.4-0.6,0.7-0.6c1.2,0,2-0.6,2.5-1.6					c0.3-0.7,0.8-1,1.6-1c0.8,0,1.6,0,2.5,0c-0.1-0.6-0.2-1.2-0.3-1.9c-0.6,0.2-1.2,0.4-1.6,0.5c-0.4-0.6-0.7-1.2-1.2-1.4					c-0.7-0.4-1-1-0.4-1.5c0.5-0.4,1.1-0.7,1.7-1C1006.8,518.8,1007.2,518.4,1007.7,518.1z M1010.7,520.9c0,1.2-0.2,2.2-1.5,2.5					c-0.2,0-0.3,0.4-0.4,0.6c0.2,0.1,0.4,0.3,0.6,0.3c0.6,0,1.1,0,1.7,0c0.8,0.1,1.1-0.4,1.3-1c0.1-0.3-0.2-0.7-0.4-1					C1011.5,521.8,1011.1,521.3,1010.7,520.9z M964.4,528.6c0.3-0.8-0.1-1.3-0.6-1.4c-1.2-0.3-2.4,0.3-2.6,1.3					C962.3,528.5,963.4,528.5,964.4,528.6z M961.7,531.3c0.5-0.7,1.1-1.5,1.6-2.3c-1.3-0.2-2.1,0.3-2.3,1.3					C960.9,530.8,961,531.2,961.7,531.3z M954.8,517.5c0,0.3,0,0.5,0,0.8c1.8,0.2,2.6,0.2,2.3-1.2					C956.4,517.2,955.6,517.4,954.8,517.5z M959.4,525.8c1.1,0,1.3-0.7,1.3-1.8c-0.7,0.1-1.3,0.2-2.1,0.4c0.2,0.5,0.4,0.8,0.5,1.1					C959.2,525.6,959.3,525.7,959.4,525.8z M963.5,531.9c1.5,0.2,1.9-0.1,1.8-1.3C964.2,530.6,963.7,531,963.5,531.9z M955,520					c0,0.1,0,0.2,0,0.4c0.7,0.3,1.4,0.1,2.1,0c0.1,0,0.1-0.5,0.3-0.9C956.4,519.6,955.7,519.8,955,520z M966.2,529.7					c-0.1,1.4,0.1,1.5,1.6,1.3C967.9,529.7,966.7,530.2,966.2,529.7z M964.4,530.1c1.2,0,1.5-0.3,1.2-1.2c-0.4,0-0.8,0-1.2,0					C964.4,529.4,964.4,529.8,964.4,530.1z M1018.4,532.5c-0.4-0.7-0.6-1.3-0.9-1.9c-0.1,0-0.2,0.1-0.2,0.1c0,0.6,0,1.3,0,1.9					C1017.6,532.5,1017.9,532.5,1018.4,532.5z"></path>				<path class="st1" d="M982.2,595.8c2-0.3,4-0.5,6-0.8c6.7-1.2,12.9-3.8,18.4-7.8c8.5-6.2,14.3-14.4,17.4-24.5					c1-3.2,1.5-6.4,1.8-9.7c0-0.2,0.1-0.4,0.1-0.6c0,14.5,0,29,0,43.5C1011.3,595.8,996.7,595.8,982.2,595.8z"></path>				<path class="st1" d="M1018.4,532.5c-0.5,0-0.8,0.1-1.2,0.1c0-0.7,0-1.3,0-1.9c0.1,0,0.2-0.1,0.2-0.1					C1017.7,531.2,1018,531.8,1018.4,532.5z"></path>				<path class="st1" d="M1000.9,521.5c0.3,1.6,0.7,3.1,2.4,3.8c-0.8,1.6-2.3,1-3.6,1.2c0.1-0.8-0.2-1.7,1.4-1.7					c-0.4-0.5-0.7-0.8-0.9-1.1c-0.4-0.4-1.2-0.5-1-1.3C999.4,521.5,1000.1,521.6,1000.9,521.5z"></path>				<path class="st1" d="M997,525.8c-0.2-1.2,0.6-2.3,1.7-2.4c0.3,0,0.9,0.2,1,0.4c0.1,0.3-0.1,0.8-0.4,1					C998.6,525.3,998,526.1,997,525.8z"></path>				<path class="st1" d="M974.7,529.4c0.6-0.3,1.1-0.6,1.6-0.9c0.2-0.1,0.5,0,1,0c-0.6,0.6-1,1.1-1.5,1.4					C975.2,530.2,974.8,530,974.7,529.4z"></path>			</g>		</g>	</g>	<g>		<g>			<path class="st1" d="M547.8,673.3c-1.7,1-3.7,1.5-5.9,1.5c-2.6,0-4.6-0.8-6.1-2.3c-1.5-1.6-2.3-3.7-2.3-6.3				c0-2.7,0.8-4.8,2.6-6.5c1.7-1.7,3.9-2.6,6.6-2.6c1.8,0,3.4,0.3,4.7,0.9v2.7c-1.3-0.8-3-1.3-4.9-1.3c-1.8,0-3.3,0.6-4.4,1.8				c-1.2,1.2-1.7,2.8-1.7,4.8c0,2,0.5,3.6,1.6,4.8c1.1,1.1,2.5,1.7,4.3,1.7c1.2,0,2.2-0.2,3-0.7v-4.3h-3.6v-2.3h6.3V673.3z"></path>			<path class="st1" d="M567.3,667.4c0,4.9-2.3,7.4-6.8,7.4c-4.3,0-6.5-2.4-6.5-7.1v-10.3h2.7v10.2c0,3.3,1.3,4.9,4,4.9				c2.6,0,3.9-1.6,3.9-4.7v-10.4h2.7V667.4z"></path>			<path class="st1" d="M587.5,674.5h-2.9L583,670h-6.9l-1.5,4.5h-2.9l6.5-17.1h3L587.5,674.5z M582.2,667.8l-2.4-6.8				c-0.1-0.2-0.2-0.7-0.3-1.3h-0.1c-0.1,0.5-0.2,0.9-0.3,1.3l-2.4,6.8H582.2z"></path>			<path class="st1" d="M605.6,674.5h-3.1l-2.8-4.7c-0.5-0.9-1-1.5-1.5-1.9c-0.4-0.3-1-0.5-1.5-0.5h-1.4v7h-2.7v-17.1h5.5				c1.8,0,3.2,0.4,4.1,1.2c1,0.8,1.5,1.9,1.5,3.4c0,1.2-0.3,2.1-1,3c-0.7,0.8-1.6,1.4-2.8,1.7v0c0.8,0.3,1.6,1.2,2.6,2.7				L605.6,674.5z M595.3,659.5v5.7h2.4c1,0,1.8-0.3,2.3-0.9c0.6-0.6,0.9-1.3,0.9-2.2c0-1.8-1.1-2.7-3.2-2.7H595.3z"></path>			<path class="st1" d="M610.4,674.5v-17.1h5.2c6,0,9.1,2.8,9.1,8.4c0,2.7-0.9,4.8-2.6,6.4c-1.7,1.6-3.9,2.4-6.6,2.4H610.4z				 M613.1,659.6v12.6h2.3c2,0,3.6-0.6,4.8-1.7c1.2-1.1,1.7-2.7,1.7-4.8c0-2-0.5-3.5-1.6-4.6c-1.1-1-2.7-1.6-4.8-1.6H613.1z"></path>			<path class="st1" d="M633.3,659.5L633.3,659.5v12.8v0v2.2h-2.7v-2.2v0v-12.8v0v-2.2h2.7V659.5z"></path>			<path class="st1" d="M654.2,674.5h-2.9l-1.6-4.5h-6.9l-1.5,4.5h-2.9l6.5-17.1h3L654.2,674.5z M648.9,667.8l-2.4-6.8				c-0.1-0.2-0.2-0.7-0.3-1.3h-0.1c-0.1,0.5-0.2,0.9-0.3,1.3l-2.4,6.8H648.9z"></path>			<path class="st1" d="M673.7,674.5h-3l-8.2-12.6c-0.3-0.5-0.5-0.9-0.7-1.2h-0.1c0.1,0.4,0.1,1.3,0.1,2.5v11.3h-2.6v-17.1h3.1				l8,12.4c0.4,0.6,0.6,1,0.8,1.2h0.1c-0.1-0.5-0.1-1.3-0.1-2.5v-11.2h2.6V674.5z"></path>			<path class="st1" d="M679.9,670.9c1.3,1.1,2.9,1.6,4.6,1.6c2.3,0,3.4-0.8,3.4-2.3c0-0.5-0.1-0.9-0.4-1.2s-0.6-0.7-1-0.9				s-1.3-0.7-2.5-1.3c-1.5-0.7-2.6-1.5-3.2-2.2c-0.6-0.8-0.9-1.7-0.9-2.7c0-1.5,0.6-2.6,1.7-3.5c1.2-0.8,2.7-1.3,4.5-1.3				c1.7,0,3,0.2,3.9,0.6v2.7c-1.1-0.7-2.4-1.1-3.9-1.1c-1,0-1.8,0.2-2.4,0.6c-0.6,0.4-0.9,1-0.9,1.7c0,0.6,0.2,1.2,0.7,1.6				s1.4,1,2.9,1.7c1.7,0.8,2.9,1.6,3.5,2.4c0.6,0.8,1,1.7,1,2.8c0,1.5-0.6,2.7-1.7,3.6s-2.7,1.2-4.7,1.2c-0.7,0-1.5-0.1-2.4-0.3				c-0.9-0.2-1.6-0.4-2.1-0.7V670.9z"></path>			<path class="st1" d="M703.9,666.1c0-2.7,0.8-4.9,2.3-6.6c1.5-1.7,3.6-2.5,6.1-2.5c2.4,0,4.3,0.8,5.8,2.4c1.5,1.6,2.2,3.7,2.2,6.2				c0,2.7-0.7,4.9-2.2,6.5c-1.5,1.7-3.5,2.5-6,2.5c-2.4,0-4.4-0.8-5.9-2.4C704.7,670.8,703.9,668.7,703.9,666.1z M706.7,666				c0,1.9,0.5,3.4,1.4,4.7s2.3,1.8,3.9,1.8c1.7,0,3.1-0.6,4-1.7c1-1.2,1.4-2.7,1.4-4.7c0-2-0.5-3.6-1.4-4.8c-0.9-1.2-2.2-1.8-4-1.8				c-1.7,0-3,0.6-4,1.8S706.7,664,706.7,666z"></path>			<path class="st1" d="M735.3,659.6h-6.5v5.3h6v2.3h-6v7.3h-2.7v-17.1h9.1V659.6z"></path>			<path class="st1" d="M760.3,659.6h-4.9v14.9h-2.7v-14.9h-4.9v-2.3h12.5V659.6z"></path>			<path class="st1" d="M779.2,674.5h-2.7V667h-8.2v7.5h-2.7v-17.1h2.7v7.3h8.2v-7.3h2.7V674.5z"></path>			<path class="st1" d="M795.7,674.5h-9.5v-17.1h9.1v2.3h-6.4v5h6v2.3h-6v5.3h6.8V674.5z"></path>			<path class="st1" d="M812.6,668.2v6.3h-2.7v-17.1h5.2c1.9,0,3.4,0.4,4.5,1.3c1,0.9,1.5,2.2,1.5,3.9c0,1.7-0.6,3.1-1.8,4.1				c-1.2,1-2.8,1.5-4.6,1.5H812.6z M812.6,659.6v6.4h1.9c2.6,0,3.8-1.1,3.8-3.3c0-2.1-1.2-3.1-3.7-3.1H812.6z"></path>			<path class="st1" d="M838.8,674.5h-2.9l-1.6-4.5h-6.9l-1.5,4.5H823l6.5-17.1h3L838.8,674.5z M833.5,667.8l-2.4-6.8				c-0.1-0.2-0.2-0.7-0.3-1.3h-0.1c-0.1,0.5-0.2,0.9-0.3,1.3l-2.4,6.8H833.5z"></path>			<path class="st1" d="M853.3,674.5h-9.3v-17.1h2.7v14.9h6.7V674.5z"></path>			<path class="st1" d="M868,674.5h-9.5v-17.1h9.1v2.3h-6.4v5h6v2.3h-6v5.3h6.8V674.5z"></path>			<path class="st1" d="M882.2,674.5v-17.1h5.4c1.6,0,2.9,0.4,3.8,1.1c0.9,0.7,1.4,1.7,1.4,2.9c0,0.9-0.3,1.8-0.9,2.5				c-0.6,0.7-1.3,1.2-2.2,1.5v0c1.2,0.1,2.1,0.6,2.8,1.3c0.7,0.7,1.1,1.7,1.1,2.8c0,1.5-0.5,2.7-1.6,3.6c-1.1,0.9-2.5,1.4-4.2,1.4				H882.2z M884.9,659.5v5h1.9c1,0,1.8-0.2,2.4-0.7c0.6-0.5,0.8-1.2,0.8-2c0-1.5-1-2.3-3.1-2.3H884.9z M884.9,666.7v5.6h2.5				c1.1,0,1.9-0.3,2.5-0.8s0.9-1.2,0.9-2.1c0-1.8-1.2-2.7-3.7-2.7H884.9z"></path>			<path class="st1" d="M908.9,674.5h-9.3v-17.1h2.7v14.9h6.7V674.5z"></path>			<path class="st1" d="M926.8,667.4c0,4.9-2.3,7.4-6.8,7.4c-4.3,0-6.5-2.4-6.5-7.1v-10.3h2.7v10.2c0,3.3,1.3,4.9,4,4.9				c2.6,0,3.9-1.6,3.9-4.7v-10.4h2.7V667.4z"></path>			<path class="st1" d="M943.1,674.5h-9.5v-17.1h9.1v2.3h-6.4v5h6v2.3h-6v5.3h6.8V674.5z"></path>			<path class="st1" d="M957.3,674.5v-17.1h5.2c6,0,9.1,2.8,9.1,8.4c0,2.7-0.9,4.8-2.6,6.4c-1.7,1.6-3.9,2.4-6.6,2.4H957.3z				 M960,659.6v12.6h2.3c2,0,3.6-0.6,4.8-1.7c1.2-1.1,1.7-2.7,1.7-4.8c0-2-0.6-3.5-1.6-4.6c-1.1-1-2.7-1.6-4.8-1.6H960z"></path>			<path class="st1" d="M976.4,666.1c0-2.7,0.8-4.9,2.3-6.6c1.5-1.7,3.6-2.5,6.1-2.5c2.4,0,4.3,0.8,5.8,2.4c1.5,1.6,2.2,3.7,2.2,6.2				c0,2.7-0.7,4.9-2.2,6.5c-1.5,1.7-3.5,2.5-6,2.5c-2.4,0-4.4-0.8-5.9-2.4C977.2,670.8,976.4,668.7,976.4,666.1z M979.2,666				c0,1.9,0.5,3.4,1.4,4.7s2.3,1.8,3.9,1.8c1.7,0,3.1-0.6,4-1.7c1-1.2,1.4-2.7,1.4-4.7c0-2-0.5-3.6-1.4-4.8c-0.9-1.2-2.2-1.8-4-1.8				c-1.7,0-3,0.6-4,1.8S979.2,664,979.2,666z"></path>			<path class="st1" d="M1008.4,659.6h-4.9v14.9h-2.7v-14.9h-4.9v-2.3h12.5V659.6z"></path>			<path class="st1" d="M1010.6,673.2c0-0.5,0.2-0.8,0.5-1.1s0.7-0.4,1.2-0.4c0.4,0,0.8,0.1,1.2,0.4s0.5,0.7,0.5,1.1				c0,0.4-0.2,0.8-0.5,1.1s-0.7,0.5-1.2,0.5c-0.4,0-0.8-0.1-1.2-0.4C1010.8,674,1010.6,673.7,1010.6,673.2z"></path>		</g>	</g></g></svg>